
<svg xmlns="http://www.w3.org/2000/svg" version="1.1" xmlns:xlink="http://www.w3.org/1999/xlink" xmlns:svgjs="http://svgjs.dev/svgjs" width="1500" height="1687" viewBox="0 0 1500 1687"><g transform="matrix(1,0,0,1,2.2737367544323206e-13,0)"><svg viewBox="0 0 320 360" data-background-color="#e4e4de" preserveAspectRatio="xMidYMid meet" height="1687" width="1500" xmlns="http://www.w3.org/2000/svg" xmlns:xlink="http://www.w3.org/1999/xlink"><g id="tight-bounds" transform="matrix(1,0,0,1,0,0)"><svg viewBox="0 0 320 360" height="360" width="320"><g><svg></svg></g><g><svg viewBox="0 0 320 360" height="360" width="320"><g><path d="M20.961 227.22l3.726 4.658-1.863-6.056c-0.466-2.795-3.726 0.466-1.863 1.398M25.153 224.425c1.397 2.329 2.795 4.658 2.795 6.987 0 3.261 2.795 4.658 5.123 5.589-3.261-3.726-5.124-13.974-7.918-12.576M204.017 26.929c7.918 0 15.371-0.932 23.756 0.931 20.495 5.124 37.729 15.371 49.374 29.811l32.606 52.169c1.397 13.042 4.192 27.482 3.726 43.319 3.261 0 2.795-4.658 6.521-5.59-3.726 9.316-5.59 20.961-6.521 34.469-2.329-7.453 0-18.632 0.466-24.687-3.261 5.124-5.124 1.397-5.124-0.932 0.466-3.726-1.397-3.261-2.795-4.658-5.124-4.658-8.384-9.782-12.11-17.7 2.329-6.055 2.795-14.905-4.658-19.563-2.329-1.397-5.124-3.726-6.521-7.453-1.863-5.124-5.124-11.179-4.193-19.097 0.466-2.329-6.987 5.124-11.179 1.863-18.166-12.576-36.332-27.016-58.224-39.127-11.645 0-20.029-4.192-24.221-9.316-3.726-4.658-0.932-10.713 4.658-11.179 3.261 0 6.987-0.932 9.782 0.932 0.466-1.863 2.329-4.192 4.657-4.192M157.904 16.215l0.932 0.466c4.658 0.932 6.987 7.453 12.11 5.124 0 3.261 0.466 6.521-0.466 8.85-1.397 3.726-5.59 3.726-8.85 3.726-31.208-1.863-49.374 11.179-68.471 22.358-5.124 3.261-10.713 5.59-14.906 9.782-20.029 18.632-41.921 35.866-47.045 70.335l-4.192 38.195c-0.466 4.192-5.124 8.384-4.192 13.508l3.26 22.824c-3.261-3.261-5.124 0.932-4.192 2.795 0.466 1.397 2.329 6.055 5.124 1.863 3.726 6.987 7.453 20.495 12.576 26.55 15.837 18.632 36.332 35.4 53.101 52.169 4.192-0.932 7.453-0.932 8.384-3.727 1.397 2.795-1.397 5.59-3.726 6.056 7.453 4.658 15.837 8.85 27.016 9.781 14.44 0.932 27.948 3.261 40.524 6.522 6.521-1.863 13.042-2.795 20.029-3.261 2.329 0 3.726-3.726 6.521-4.658l0.466-4.658c2.795 4.192 2.329-1.397 0.466-4.192 3.261 2.795 4.192 5.124 5.589 6.987 0-1.397 3.726-6.521 3.727-0.466l0.931-6.055c1.397-0.932 1.863 5.124 3.261 0.931 1.397-4.192 4.192-0.932 6.987-2.329-0.932 1.863-0.466 5.59 2.794 3.261l3.727-3.261c2.329 5.59 6.055 3.261 7.918 2.329 20.495-13.042 40.99-28.413 60.553-43.784l-0.466 6.055 2.329-7.453c2.329 2.329 4.192 0.466 5.124-0.931 2.795-4.658 6.521-9.316 12.577-13.508-7.453 20.029-16.303 35.866-27.482 48.908l-4.658 5.59c0 3.261-0.932 7.453-4.658 7.918-1.863 0.466-5.59-0.932-8.384 1.863-1.397 1.863 3.261 5.59-0.466 2.795-3.261-2.329-6.521 0-10.248 0.932-2.795 0.932 1.863 3.726 2.795 5.589 0.932 1.863 1.863 3.726 1.398 6.056l-5.124-5.59c-6.055 3.261-9.782 9.316-14.906 13.974-2.329 1.863-1.397 5.124-1.397 7.918-3.261 0-6.987-0.932-8.85 0.932-1.397 1.863-0.932 4.658-0.932 7.453-4.658-0.466-5.124-7.453-9.315-6.056-4.192 0.932-8.85 1.397-12.577 3.727 2.795 5.59-4.658 2.329-3.726 3.26-6.987-4.192-13.042-7.453-20.495-4.658-15.837-5.124-35.4-2.795-49.84-0.931 0-2.329 0.466-4.658-0.466-5.124-0.932 2.329-3.726 1.397-3.26 1.397-8.85-6.055-17.7-9.782-27.016-14.905-8.384 0.932-16.303-3.261-18.632-5.59-6.521-6.055-13.974-2.795-20.029-4.192-13.042-3.261-17.7-16.769-19.098-26.084-0.932-4.658-4.658-6.521-6.055-6.056-6.055-19.563-15.371-37.263-22.824-55.429-1.863-4.658-1.397-9.316-1.397-14.44 2.329 0.932 4.658 0.466 4.192-2.794-2.329-15.371-7.918-27.016-13.974-38.195 3.261-15.837 3.726-34.469 11.179-48.443 6.521-12.576 18.632-19.098 27.016-29.811 2.795-3.726 2.795-8.85 5.59-12.11 9.316-9.316 18.632-19.098 28.879-27.482 4.658-3.726 10.247 0 17.234-1.397 2.329-8.384 11.645-15.837 20.495-13.508 3.726 0.932 11.179-8.85 13.508-9.782 3.726-1.397 1.863 3.726 1.863 6.987 8.85-6.987 20.961-10.713 32.14-14.906" fill="#ffffff" fill-rule="nonzero" stroke="none" stroke-width="1" stroke-linecap="butt" stroke-linejoin="miter" stroke-miterlimit="10" stroke-dasharray="" stroke-dashoffset="0" font-family="none" font-weight="none" font-size="none" text-anchor="none" style="mix-blend-mode: normal" data-fill-palette-color="tertiary"></path></g><g transform="matrix(1,0,0,1,64.00000000000001,104.13913043478261)"><svg viewBox="0 0 191.99999999999997 151.72173913043477" height="151.72173913043477" width="191.99999999999997"><g><svg viewBox="0 0 191.99999999999997 151.72173913043477" height="151.72173913043477" width="191.99999999999997"><g><svg viewBox="0 0 191.99999999999997 151.72173913043477" height="151.72173913043477" width="191.99999999999997"><g><svg viewBox="0 0 191.99999999999997 151.72173913043477" height="151.72173913043477" width="191.99999999999997"><g id="textblocktransform"><svg viewBox="0 0 191.99999999999997 151.72173913043477" height="151.72173913043477" width="191.99999999999997" id="textblock"><g><svg viewBox="0 0 191.99999999999997 151.72173913043477" height="151.72173913043477" width="191.99999999999997"><g transform="matrix(1,0,0,1,0,0)"><svg width="191.99999999999997" viewBox="1.49 -35.01 44.919999999999995 35.5" height="151.72173913043477" data-palette-color="#1b1b1b"><path d="M19.7-8.11L19.7-8.11Q19.7-6.32 19.03-4.76 18.36-3.2 17.19-2.03 16.02-0.85 14.45-0.18 12.89 0.49 11.11 0.49L11.11 0.49 10.11 0.49Q8.33 0.49 6.75-0.18 5.18-0.85 4-2.03 2.83-3.2 2.16-4.76 1.49-6.32 1.49-8.11L1.49-8.11 1.49-9.5 4.64-10.01 4.64-8.11Q4.64-6.93 5.08-5.92 5.52-4.91 6.29-4.14 7.06-3.37 8.07-2.93 9.08-2.49 10.25-2.49L10.25-2.49 10.96-2.49Q12.11-2.49 13.13-2.93 14.16-3.37 14.92-4.14 15.67-4.91 16.11-5.92 16.55-6.93 16.55-8.11L16.55-8.11 16.55-35.01 19.7-35.01 19.7-8.11ZM46.41-8.59L46.41-8.59Q46.41-6.81 45.74-5.25 45.07-3.69 43.89-2.51 42.72-1.34 41.15-0.67 39.57 0 37.79 0L37.79 0 26.71 0 26.71-35.01 37.79-35.01Q39.57-35.01 41.15-34.34 42.72-33.67 43.89-32.5 45.07-31.32 45.74-29.75 46.41-28.17 46.41-26.39L46.41-26.39 46.41-26.05Q46.41-24.8 46.08-23.67 45.75-22.53 45.14-21.56 44.53-20.58 43.7-19.79 42.87-18.99 41.84-18.46L41.84-18.46Q42.87-17.92 43.7-17.13 44.53-16.33 45.14-15.34 45.75-14.36 46.08-13.22 46.41-12.08 46.41-10.84L46.41-10.84 46.41-8.59ZM43.26-8.59L43.26-11.35Q43.26-12.52 42.82-13.54 42.38-14.55 41.61-15.31 40.84-16.06 39.83-16.5 38.82-16.94 37.64-16.94L37.64-16.94 29.86-16.94 29.86-3 37.64-3Q38.82-3 39.83-3.44 40.84-3.88 41.61-4.64 42.38-5.4 42.82-6.41 43.26-7.42 43.26-8.59L43.26-8.59ZM43.26-25.56L43.26-26.39Q43.26-27.56 42.82-28.58 42.38-29.59 41.61-30.36 40.84-31.13 39.83-31.57 38.82-32.01 37.64-32.01L37.64-32.01 29.86-32.01 29.86-19.95 37.64-19.95Q38.82-19.95 39.83-20.39 40.84-20.83 41.61-21.59 42.38-22.36 42.82-23.38 43.26-24.39 43.26-25.56L43.26-25.56Z" opacity="1" transform="matrix(1,0,0,1,0,0)" fill="#ffffff" class="wordmark-text-0" data-fill-palette-color="primary" id="text-0"></path></svg></g></svg></g></svg></g></svg></g><g></g></svg></g></svg></g></svg></g></svg></g><defs></defs></svg><rect width="320" height="360" fill="none" stroke="none" visibility="hidden"></rect></g></svg></g></svg>